<svg version="1.1" id="Layer_1" xmlns="http://www.w3.org/2000/svg" xmlns:xlink="http://www.w3.org/1999/xlink" x="0px" y="0px"
	 width="100%" viewBox="0 0 886 886" enable-background="new 0 0 886 886" xml:space="preserve">
<path fill="#020202" opacity="1.000000" stroke="none" 
	d="
M603.000000,887.000000 
	C402.000000,887.000000 201.500000,887.000000 1.000000,887.000000 
	C1.000000,591.666687 1.000000,296.333344 1.000000,1.000000 
	C296.333344,1.000000 591.666687,1.000000 887.000000,1.000000 
	C887.000000,296.333344 887.000000,591.666687 887.000000,887.000000 
	C792.500000,887.000000 698.000000,887.000000 603.000000,887.000000 
M328.604309,404.098541 
	C322.501831,410.700623 316.301392,417.216736 310.375488,423.973663 
	C309.116882,425.408813 308.254669,427.715515 308.234833,429.631256 
	C308.057098,446.793884 308.108643,463.958862 308.093292,481.123169 
	C308.091614,482.976135 308.093048,484.829102 308.093048,487.693878 
	C338.992371,455.005371 368.931854,423.332275 399.362762,391.139252 
	C401.519226,393.536560 403.229401,395.541077 405.046936,397.442963 
	C436.911957,430.786774 468.763031,464.144104 500.751465,497.369141 
	C502.231232,498.906097 504.962006,499.994537 507.118591,500.008789 
	C533.280640,500.181885 559.444336,500.113708 585.607605,500.108307 
	C587.190369,500.107971 588.773071,500.108246 591.924744,500.108246 
	C546.889343,451.704773 502.873474,404.397003 458.751038,356.974792 
	C504.331909,308.598846 549.733521,260.413147 595.861084,211.456940 
	C568.032959,211.456940 541.569031,211.519882 515.106140,211.380188 
	C511.654755,211.361984 509.284119,212.325027 506.904785,214.859253 
	C476.132050,247.634933 445.238983,280.297607 414.396210,313.007599 
	C385.943390,343.183044 357.514557,373.381104 328.604309,404.098541 
M371.253113,322.829071 
	C390.061951,320.943268 405.221069,313.763824 412.378845,294.744080 
	C412.717987,293.842957 414.331573,293.168121 415.477539,292.866699 
	C421.203308,291.360626 424.819153,287.596741 425.832275,282.008698 
	C426.590057,277.829193 426.296356,273.422699 426.165131,269.126587 
	C425.941254,261.794220 422.007965,257.172668 415.242249,254.592255 
	C413.987488,254.113693 412.632263,252.756287 412.176758,251.496048 
	C405.518982,233.076172 393.037537,220.581955 374.421600,214.503967 
	C368.958466,212.720276 363.201965,211.835281 357.455597,210.509735 
	C357.849335,204.862198 355.581848,198.936615 361.455261,194.172913 
	C364.493530,191.708710 362.819214,186.150269 359.288483,183.167145 
	C355.548981,180.007706 350.994812,180.205048 347.141205,183.693573 
	C344.125610,186.423447 342.859528,192.146088 345.776123,194.407227 
	C351.959137,199.200729 349.467682,205.220062 349.793243,210.928467 
	C326.904602,213.809891 308.581055,223.038345 298.375732,244.371170 
	C295.886627,249.574356 294.321747,254.871185 287.778839,256.846893 
	C285.527252,257.526764 282.885803,260.655548 282.489899,263.012848 
	C281.459900,269.145935 281.103516,275.491669 281.370026,281.714386 
	C281.627075,287.716553 285.799988,290.952332 291.354675,292.807037 
	C293.043701,293.371002 294.940765,294.968842 295.640930,296.573761 
	C300.963806,308.774689 309.652893,316.835846 322.713348,320.203888 
	C338.444275,324.260559 354.364868,323.984741 371.253113,322.829071 
M187.052429,546.087158 
	C182.891510,546.033447 178.702972,546.259644 174.576981,545.852173 
	C169.885559,545.388794 168.620193,547.147339 168.660614,551.741272 
	C168.874619,576.051453 168.692307,600.364929 168.824142,624.676270 
	C168.875854,634.214233 166.736374,633.725586 177.838379,633.635864 
	C188.913040,633.546509 189.698364,633.501465 188.718521,622.580383 
	C187.817703,612.540222 191.636383,605.749756 199.473190,600.089539 
	C206.819138,610.117188 214.139938,620.167542 221.548447,630.152832 
	C222.498337,631.433105 223.866821,633.273560 225.105347,633.325378 
	C232.327164,633.627563 239.568069,633.473450 247.868744,633.473450 
	C235.702866,616.502136 224.232452,600.501038 212.864075,584.642273 
	C223.785675,571.874939 234.344116,559.532104 245.935318,545.981995 
	C238.640518,545.981995 232.580460,545.758179 226.553558,546.107239 
	C224.530716,546.224365 222.056549,547.311218 220.705276,548.791504 
	C213.751144,556.409851 207.092911,564.298340 200.336151,572.096741 
	C196.830246,576.143066 193.334274,580.198059 188.952911,585.268616 
	C188.952911,573.086304 188.998199,562.323975 188.906540,551.562683 
	C188.891953,549.851135 188.261642,548.144836 187.052429,546.087158 
M343.529572,465.026825 
	C332.853912,476.438354 322.178223,487.849884 310.965759,499.835205 
	C341.501984,499.835205 370.870758,499.835205 400.388611,499.835205 
	C400.388611,468.225616 400.388611,436.918610 400.388611,404.840973 
	C381.210907,425.111877 362.591339,444.792877 343.529572,465.026825 
M409.187988,593.395691 
	C402.629059,585.275146 392.954041,583.594238 383.698212,581.005249 
	C379.246674,579.760010 374.501587,578.964478 370.510590,576.813049 
	C364.510498,573.578674 364.964172,567.194580 371.015594,564.033813 
	C377.846832,560.465698 384.952026,561.361328 391.903961,563.469421 
	C396.077789,564.735046 400.030090,566.731323 404.337006,568.504150 
	C406.371368,563.044739 408.312561,557.835266 410.413910,552.196045 
	C393.952942,543.482361 377.444672,541.538940 360.699921,549.121033 
	C350.817017,553.596008 346.616730,562.270691 346.859039,573.096252 
	C347.082153,583.065247 352.176300,589.654968 361.116272,593.344360 
	C365.699493,595.235840 370.524536,596.542664 375.244080,598.102295 
	C380.114197,599.711670 385.234039,600.827087 389.747864,603.131592 
	C391.712158,604.134338 393.591095,607.667236 393.399567,609.867432 
	C393.206573,612.084351 390.790070,614.790588 388.630737,615.973511 
	C386.154083,617.330261 382.898773,617.645264 379.964478,617.717896 
	C369.809204,617.969482 360.879669,614.125366 352.112488,608.335632 
	C349.722260,613.724487 347.463745,618.816467 345.302185,623.689880 
	C345.726440,624.344116 345.852509,624.682739 346.093597,624.882446 
	C346.732513,625.411499 347.388550,625.933716 348.094696,626.365662 
	C362.527405,635.193420 378.165070,637.185913 394.225922,632.897949 
	C411.887634,628.182617 418.926849,609.512573 409.187988,593.395691 
M503.750885,549.649292 
	C503.750885,547.196228 503.750885,544.743164 503.750885,542.134033 
	C497.100800,542.134033 491.045929,542.134033 484.921814,542.134033 
	C484.921814,572.752747 484.921814,602.993408 484.921814,633.580505 
	C489.386169,633.580505 493.370789,633.556702 497.355011,633.585999 
	C503.730591,633.632935 503.719452,633.647827 503.720886,627.051025 
	C503.723022,617.051941 503.592560,607.049683 503.804230,597.054810 
	C503.958466,589.772461 507.516632,584.782166 513.091553,583.143860 
	C522.381897,580.413696 529.593018,586.075684 529.787720,596.605225 
	C529.991028,607.600647 529.947266,618.604736 529.757080,629.600647 
	C529.705078,632.607239 530.364929,633.888794 533.564514,633.704834 
	C537.551697,633.475464 541.585144,633.862305 545.544983,633.457825 
	C546.742310,633.335510 548.711914,631.474487 548.718323,630.400208 
	C548.801636,616.406128 549.351562,602.351685 548.273499,588.429504 
	C546.868103,570.279785 530.672607,560.683960 513.529663,567.032837 
	C510.241852,568.250427 507.275452,570.335876 503.752167,572.242065 
	C503.752167,564.847168 503.752167,557.728394 503.750885,549.649292 
M289.517242,566.848572 
	C276.786896,563.504028 264.453308,564.456909 252.760284,570.650085 
	C251.208298,571.472107 249.073669,574.086731 249.425720,575.104370 
	C250.859604,579.249084 253.156082,583.095459 255.204041,587.190430 
	C262.983337,582.126282 270.738586,579.702759 279.405487,581.682556 
	C285.335114,583.037109 287.856018,586.355591 287.874725,592.433105 
	C279.600220,592.929932 271.259918,592.883484 263.094513,594.055603 
	C252.170288,595.623718 245.915222,603.287292 246.045044,613.500916 
	C246.181503,624.235962 252.876068,632.087219 263.604309,633.908508 
	C273.192810,635.536255 282.104675,634.356018 289.621368,626.391479 
	C289.827972,629.167480 289.978943,631.195435 290.129761,633.221680 
	C296.029114,633.221680 301.602753,633.221680 307.148438,633.221680 
	C307.148438,617.898315 307.828644,602.898376 306.911407,587.996765 
	C306.290680,577.911560 300.451935,570.344360 289.517242,566.848572 
M637.311157,572.778076 
	C626.836426,581.892395 622.810974,598.260376 627.509644,612.632446 
	C631.689026,625.416199 642.577454,633.455383 657.286743,634.617737 
	C672.917908,635.852783 686.134338,627.228210 691.305298,612.418457 
	C696.657654,597.089233 691.068237,578.674377 678.612732,570.601501 
	C666.422791,562.700745 650.837769,563.361328 637.311157,572.778076 
M592.062744,634.397583 
	C605.672852,633.435669 615.643005,626.920471 620.040771,613.951965 
	C622.005981,608.156738 622.178467,601.527588 622.059387,595.298096 
	C621.800720,581.763123 613.199280,570.803711 600.720764,566.972046 
	C586.513977,562.609802 569.363159,566.863464 562.179626,577.416992 
	C553.389526,590.330994 552.785339,604.445312 559.854492,618.160461 
	C566.239136,630.547668 577.636719,635.000000 592.062744,634.397583 
M336.091034,380.189789 
	C337.225983,379.485992 338.558044,378.974121 339.462128,378.045532 
	C343.636902,373.757355 347.680023,369.341400 351.793396,364.993042 
	C361.563477,354.664795 371.346588,344.348907 381.150513,334.000519 
	C380.587860,333.561432 380.355469,333.221375 380.122986,333.221283 
	C365.314453,333.215363 350.496613,332.918457 335.700165,333.351349 
	C322.481842,333.738068 311.043030,342.163666 309.633057,355.146942 
	C307.657349,373.339569 308.176331,391.803131 307.584656,411.606354 
	C309.709839,409.766785 310.586548,409.129089 311.318665,408.354767 
	C316.569580,402.801117 321.959991,397.364410 326.927582,391.566254 
	C328.602753,389.611023 329.957031,386.765625 330.117004,384.242004 
	C330.610779,376.452606 330.344055,368.617645 330.658997,360.811890 
	C330.716827,359.378937 332.115967,358.000122 332.895966,356.596283 
	C333.907654,358.043579 335.709961,359.447266 335.792694,360.945801 
	C336.131348,367.083954 335.945679,373.251068 336.091034,380.189789 
M453.268250,565.139404 
	C442.770508,565.096069 433.080627,567.455627 425.487915,575.225647 
	C415.319794,585.631287 413.522858,606.874817 421.554749,619.508972 
	C429.460815,631.945190 446.535767,637.901428 461.201447,633.174927 
	C469.662201,630.448120 475.809814,625.135681 479.103149,616.394287 
	C474.121124,613.736145 469.457001,611.247559 464.846100,608.787476 
	C455.657806,618.846619 447.927155,620.500061 441.036224,614.025513 
	C434.262299,607.660889 433.361938,592.915527 439.943481,586.682495 
	C442.517151,584.245178 446.392853,582.499634 449.923584,581.900391 
	C456.923157,580.712158 460.922394,585.874023 464.527863,590.968567 
	C469.494415,587.850281 474.069427,584.977783 478.714996,582.061035 
	C473.848694,570.875977 465.054443,566.501892 453.268250,565.139404 
M719.114380,607.500000 
	C719.114380,585.765442 719.114380,564.030823 719.114380,542.114380 
	C712.443237,542.114380 706.395264,542.114380 700.253967,542.114380 
	C700.253967,572.647400 700.253967,602.824768 700.253967,633.260620 
	C706.666992,633.260620 712.732727,633.260620 719.113403,633.260620 
	C719.113403,624.774231 719.113403,616.637085 719.114380,607.500000 
M337.683044,618.489502 
	C337.678467,602.682617 337.582458,586.874878 337.739105,571.069580 
	C337.774506,567.498779 336.981171,565.767151 333.046753,566.145386 
	C329.746918,566.462708 326.377930,566.500916 323.074982,566.230408 
	C319.242676,565.916626 318.280823,567.481262 318.311493,571.111877 
	C318.474487,590.411255 318.509796,609.713379 318.348297,629.012573 
	C318.315613,632.918640 319.785126,633.674072 323.324432,633.681641 
	C337.749329,633.712463 337.749115,633.819275 337.683044,618.489502 
M569.543640,327.002075 
	C561.066650,335.693542 552.674500,344.470490 544.059570,353.023010 
	C541.565857,355.498596 541.624207,357.249023 543.986755,359.610962 
	C547.040100,362.663452 549.832825,365.974731 552.799255,369.116516 
	C559.320801,376.023376 565.881042,382.893707 572.969116,390.350861 
	C572.969116,385.913818 572.615662,382.403809 573.041809,378.991119 
	C573.965271,371.596161 572.535645,365.279297 566.357849,360.487610 
	C565.082947,359.498749 564.231201,357.964172 562.645325,356.020325 
	C575.570679,348.443665 574.546631,336.488251 572.900635,323.637024 
	C571.626709,324.855774 570.803589,325.643250 569.543640,327.002075 
M542.030701,341.060974 
	C542.030701,335.485382 542.030701,329.909790 542.030701,325.343781 
	C531.384644,335.367798 520.466919,345.647675 509.250183,356.209045 
	C520.160522,367.743622 530.582642,378.762085 541.839844,390.663391 
	C541.839844,386.917572 541.565186,384.299072 541.889709,381.757111 
	C543.003418,373.033417 541.412842,365.439514 533.857727,359.902039 
	C532.729797,359.075348 532.058899,357.625122 531.149536,356.427765 
	C532.666992,354.726959 534.235779,353.221863 535.501404,351.494568 
	C537.782043,348.381836 539.881104,345.136047 542.030701,341.060974 
M328.579926,666.310974 
	C328.065063,665.463989 327.550201,664.617065 327.035309,663.770081 
	C325.818909,664.525330 323.910034,665.015259 323.501923,666.080261 
	C321.348877,671.699219 319.574158,677.463135 317.221649,684.515259 
	C314.533539,676.871155 312.301544,670.524109 310.100769,664.265747 
	C306.673737,662.936707 304.882507,663.937744 303.888947,667.434509 
	C302.386017,672.724121 300.431702,677.885376 298.224792,684.416199 
	C296.140228,678.109009 294.337616,673.150879 292.884705,668.092163 
	C291.837891,664.447632 290.110413,662.638184 286.028320,664.275269 
	C288.730560,672.478210 291.293732,680.693542 294.234833,688.771301 
	C294.741821,690.163757 296.779205,691.657166 298.250305,691.818054 
	C299.298889,691.932739 301.139130,690.111084 301.664124,688.775513 
	C303.710052,683.570679 305.372467,678.215088 307.560577,671.791016 
	C309.671844,678.215271 311.240662,683.617126 313.297699,688.826233 
	C313.842010,690.204529 315.892517,691.813843 317.247162,691.810059 
	C318.557892,691.806335 320.551239,690.111877 321.055328,688.727051 
	C323.664490,681.559204 325.892242,674.252563 328.579926,666.310974 
M426.043915,663.702820 
	C422.264557,663.702820 418.485199,663.702820 414.746338,663.702820 
	C414.746338,673.465637 414.746338,682.653992 414.746338,691.952637 
	C419.630951,691.952637 424.299316,692.748169 428.523590,691.719666 
	C432.423187,690.770142 436.924927,688.699768 439.277588,685.663452 
	C446.378571,676.498901 439.700836,665.096375 426.043915,663.702820 
M339.634613,549.189697 
	C339.482269,542.443359 337.071106,538.495239 332.236450,537.075500 
	C326.832489,535.488708 321.054810,537.125244 318.304657,541.021790 
	C315.547638,544.928101 315.633575,550.475952 318.625183,554.516785 
	C321.501190,558.401489 325.602142,559.398193 330.102203,558.780945 
	C335.216095,558.079590 338.535767,555.213318 339.634613,549.189697 
M382.865875,673.504089 
	C381.873138,667.312317 379.185181,664.347961 373.331635,663.904419 
	C368.723846,663.555176 364.068481,663.834290 359.369232,663.834290 
	C359.369232,673.333862 359.369232,682.451965 359.369232,691.745422 
	C361.257477,691.745422 362.957855,691.745422 364.956665,691.745422 
	C364.956665,688.920593 364.956665,686.472961 364.956665,684.132874 
	C369.883423,682.540710 373.253082,683.935242 375.308838,688.384766 
	C376.845886,691.711609 379.283386,692.846436 383.155792,691.470276 
	C381.190186,688.532898 379.373413,685.817871 378.081696,683.887512 
	C379.866608,680.299377 381.359009,677.299255 382.865875,673.504089 
M257.144287,686.240540 
	C264.752808,694.434753 276.922577,694.332886 281.982117,686.032654 
	C285.891266,679.619690 284.885620,671.645874 279.570068,666.906250 
	C274.266144,662.177063 265.986389,661.994629 260.244293,666.480591 
	C253.981003,671.373657 252.789368,677.969543 257.144287,686.240540 
M596.085938,665.215271 
	C594.197571,664.598755 592.346619,663.640747 590.413879,663.429016 
	C584.331482,662.762451 579.134521,664.772705 575.686462,669.907593 
	C572.747375,674.284607 572.060669,679.137146 574.572632,684.089294 
	C577.520874,689.901489 583.084229,692.914734 589.818665,692.271240 
	C596.076843,691.673218 600.305664,688.479675 602.266052,682.407654 
	C604.302673,676.099182 602.495483,670.636536 596.085938,665.215271 
M552.321533,663.708801 
	C544.137329,665.825195 540.075928,671.235962 540.708313,679.180359 
	C541.284668,686.420654 546.678467,691.774292 553.951965,692.325317 
	C562.984985,693.009583 570.215820,686.728394 570.263550,678.156006 
	C570.316223,668.702759 563.362244,662.765869 552.321533,663.708801 
M533.422729,663.800415 
	C532.421021,664.638794 530.694092,665.372803 530.555542,666.335388 
	C530.162231,669.068604 530.417664,671.895203 530.417664,674.804810 
	C525.597595,674.804810 521.054932,674.804810 516.160583,674.804810 
	C516.160583,671.041931 516.160583,667.595154 516.160583,664.072998 
	C514.224976,664.072998 512.648376,664.072998 511.247925,664.072998 
	C511.247925,673.442749 511.247925,682.525818 511.247925,691.828979 
	C513.036560,691.828979 514.472107,691.828979 516.339294,691.828979 
	C516.339294,687.959473 516.339294,684.184631 516.339294,680.184814 
	C521.175537,680.184814 525.580383,680.184814 530.180786,680.184814 
	C530.363159,684.178284 530.534729,687.937012 530.715149,691.887695 
	C532.522156,691.887695 533.958069,691.887695 535.840332,691.887695 
	C535.840332,682.955933 535.868347,674.178589 535.771240,665.402588 
	C535.765381,664.872314 534.763977,664.353149 533.422729,663.800415 
M388.262024,676.511353 
	C388.262024,681.597290 388.262024,686.683167 388.262024,691.907654 
	C395.494568,691.907654 402.107819,691.907654 408.936523,691.907654 
	C408.936523,690.307312 408.936523,688.768799 408.936523,686.898193 
	C403.630402,686.898193 398.692230,686.898193 393.926788,686.898193 
	C393.926788,684.467163 393.926788,682.373535 393.926788,679.911133 
	C398.266907,679.911133 402.356750,679.911133 406.366455,679.911133 
	C407.653198,676.271362 406.454041,675.004089 403.066925,675.171936 
	C399.986298,675.324585 396.892151,675.204285 394.021729,675.204285 
	C394.021729,672.521545 394.021729,670.456238 394.021729,668.203674 
	C398.992676,668.203674 403.614288,668.203674 408.661713,668.203674 
	C408.554047,666.634399 408.461731,665.289185 408.370209,663.955688 
	C401.456329,663.955688 395.013489,663.955688 388.264435,663.955688 
	C388.264435,667.950623 388.264435,671.735840 388.262024,676.511353 
M685.105164,690.704712 
	C686.987976,691.243591 688.870789,691.782471 692.175781,692.728394 
	C689.448608,688.531006 687.605591,685.694519 685.737976,682.820068 
	C690.630371,679.858337 692.056885,675.705200 690.753113,670.672607 
	C689.642944,666.387390 685.493652,663.864136 679.802734,663.748535 
	C675.995239,663.671082 672.184875,663.733704 668.355591,663.733704 
	C668.355591,673.371033 668.355591,682.602722 668.355591,692.144531 
	C670.120300,691.994446 671.524536,691.875000 673.245117,691.728638 
	C673.245117,688.967224 673.245117,686.524719 673.245117,684.138245 
	C680.284607,683.121033 680.284607,683.121033 685.105164,690.704712 
M346.243591,675.243347 
	C343.789429,675.243347 341.335236,675.243347 338.787567,675.243347 
	C338.787567,672.695984 338.787567,670.634094 338.787567,668.254089 
	C342.744019,668.254089 346.398407,668.020081 350.008881,668.318298 
	C353.808807,668.632202 354.251190,667.035095 353.272430,664.037720 
	C346.509521,664.037720 339.930511,664.037720 333.408356,664.037720 
	C333.408356,673.461304 333.408356,682.551514 333.408356,691.773804 
	C340.445038,691.773804 347.173340,691.773804 354.201416,691.773804 
	C354.078979,690.096985 353.977844,688.711853 353.852386,686.993774 
	C348.533417,686.993774 343.590393,686.993774 338.636658,686.993774 
	C338.636658,684.534546 338.636658,682.442932 338.636658,679.858093 
	C343.107056,679.858093 347.359406,679.858093 351.427216,679.858093 
	C352.903503,674.994995 349.981445,675.174133 346.243591,675.243347 
M646.775208,663.754578 
	C645.294983,663.754578 643.814819,663.754578 642.242554,663.754578 
	C642.242554,673.305664 642.242554,682.534851 642.242554,691.749268 
	C649.273621,691.749268 656.012878,691.749268 662.860413,691.749268 
	C662.860413,690.166992 662.860413,688.898743 662.860413,687.114746 
	C657.579956,687.114746 652.491150,687.114746 647.456543,687.114746 
	C647.456543,684.494324 647.456543,682.392517 647.456543,679.856140 
	C651.945068,679.856140 656.215332,679.856140 660.785950,679.856140 
	C660.714966,678.298401 660.796387,676.251160 660.594666,676.222839 
	C656.273315,675.616821 651.920227,675.237000 647.540649,674.810059 
	C647.540649,672.672119 647.540649,670.629028 647.540649,668.322327 
	C652.503662,668.322327 657.114197,668.322327 661.963623,668.322327 
	C661.963623,666.696655 661.963623,665.342468 661.963623,663.748962 
	C657.013123,663.748962 652.364990,663.748962 646.775208,663.754578 
M719.778992,673.574585 
	C718.356018,663.422424 710.584229,662.555969 696.657166,664.392212 
	C696.657166,673.520325 696.657166,682.611511 696.657166,692.100952 
	C698.596436,692.006897 700.134338,691.932251 701.622803,691.860046 
	C701.761292,688.931091 701.875977,686.506592 701.997437,683.937866 
	C709.736877,683.645081 718.032837,684.857849 719.778992,673.574585 
M240.127014,683.726013 
	C247.675690,683.178711 251.708862,679.461731 251.434418,673.305115 
	C251.168106,667.330383 246.905945,663.820435 239.745316,663.738953 
	C235.943787,663.695679 232.141357,663.731262 228.330917,663.731262 
	C228.330917,673.327698 228.330917,682.434509 228.330917,691.814209 
	C230.153046,691.814209 231.711136,691.814209 233.466385,691.814209 
	C233.619095,689.060181 233.761749,686.487488 233.914658,683.729980 
	C235.932755,683.729980 237.574295,683.729980 240.127014,683.726013 
M188.915344,671.464172 
	C186.575241,669.128418 188.116577,663.598267 182.765213,663.788940 
	C177.595459,663.973083 178.344666,668.945557 176.858444,671.848145 
	C173.599228,678.213257 170.977280,684.904724 168.095154,691.462952 
	C168.652115,691.936157 169.209091,692.409424 169.766052,692.882690 
	C171.367172,691.540955 173.694016,690.501404 174.406799,688.789795 
	C175.607712,685.906006 177.294632,685.082642 180.117111,685.321472 
	C182.266205,685.503296 184.524780,685.071167 186.570892,685.575928 
	C188.210541,685.980347 190.455551,687.069641 190.944366,688.401123 
	C192.310715,692.122864 194.510590,692.479126 198.002380,691.420959 
	C194.974197,684.819275 192.074585,678.497864 188.915344,671.464172 
M462.351990,673.760437 
	C460.162903,671.472839 461.279175,669.228699 463.519226,668.753052 
	C466.263214,668.170349 469.295319,668.879272 472.193695,669.133789 
	C472.936493,669.199036 473.644867,669.655823 474.665985,670.046204 
	C475.310883,668.489136 475.846741,667.195251 476.427551,665.792786 
	C471.442749,663.002991 466.431580,662.128357 461.765961,664.378418 
	C459.315002,665.560425 456.972809,668.494751 456.138916,671.130432 
	C455.005890,674.711975 457.473175,677.456482 460.968201,678.762878 
	C463.600494,679.746765 466.427185,680.257019 468.971710,681.409790 
	C470.257996,681.992615 471.110596,683.532471 472.159271,684.639648 
	C470.829529,685.685791 469.441803,687.671936 468.181366,687.594177 
	C464.966095,687.395996 461.806641,686.280640 458.627380,685.521790 
	C458.193146,685.418091 457.773132,685.254700 457.261169,685.091797 
	C456.521088,686.458130 455.866852,687.665955 455.175049,688.943115 
	C460.517639,692.812500 466.033569,693.130981 471.694458,691.610046 
	C475.465851,690.596741 477.654938,687.667725 477.651672,683.875732 
	C477.648499,680.191406 475.244904,677.853943 471.659149,676.812073 
	C468.796600,675.980408 465.961975,675.052734 462.351990,673.760437 
M497.011139,692.318726 
	C500.203308,690.979553 503.395447,689.640442 507.501282,687.918030 
	C505.308105,686.007019 504.282288,685.113220 503.374023,684.321777 
	C502.688690,684.690552 502.376587,684.820129 502.106384,685.009521 
	C497.276184,688.394592 492.465363,688.400024 489.023193,685.016052 
	C485.609894,681.660522 485.145264,675.466797 488.025726,671.720398 
	C491.098511,667.723938 495.723572,666.837585 500.932343,670.044922 
	C504.152161,672.027649 504.823456,670.242981 505.969177,668.217102 
	C500.719391,662.689514 493.521423,661.786560 487.328217,665.690002 
	C481.068695,669.635315 478.667206,676.726135 481.515167,683.457947 
	C484.240570,689.900146 489.370544,692.607605 497.011139,692.318726 
M627.596313,688.699341 
	C626.388245,688.170837 625.203247,687.261414 623.967773,687.186523 
	C620.518677,686.977356 617.048523,687.113831 613.287231,687.113831 
	C613.287231,679.179932 613.287231,671.734558 613.287231,664.043823 
	C611.406250,664.043823 609.829468,664.043823 608.174011,664.043823 
	C608.174011,673.358215 608.174011,682.550171 608.174011,691.970154 
	C613.954529,691.970154 619.418213,692.083435 624.868225,691.861389 
	C625.805298,691.823181 626.684143,690.357544 627.596313,688.699341 
M288.180664,248.039154 
	C291.634888,245.938049 293.697693,243.026810 293.622803,238.828278 
	C293.489594,231.365295 293.566376,223.890640 293.115082,216.447571 
	C293.018768,214.859695 291.041504,213.385864 289.930817,211.859497 
	C289.028687,213.432343 287.363953,214.997559 287.348145,216.579254 
	C287.245270,226.863022 287.500702,237.150375 288.180664,248.039154 
M419.773346,239.378998 
	C419.784760,232.071976 420.000702,224.755646 419.668182,217.464310 
	C419.581696,215.567749 417.782837,213.749283 416.770477,211.894958 
	C415.756927,213.736710 413.953857,215.542847 413.868927,217.426483 
	C413.532501,224.884308 413.359436,232.394806 413.923157,239.825302 
	C414.144043,242.736511 416.463989,245.488495 417.827972,248.312988 
	C418.474609,248.097961 419.121277,247.882950 419.767914,247.667923 
	C419.767914,245.222382 419.767914,242.776855 419.773346,239.378998 
M201.023819,686.326660 
	C201.023819,688.109070 201.023819,689.891479 201.023819,691.848877 
	C203.003342,691.848877 204.445587,691.848877 206.041321,691.848877 
	C206.041321,682.463623 206.041321,673.259033 206.041321,663.916992 
	C204.326645,663.916992 202.876678,663.916992 201.022598,663.916992 
	C201.022598,671.181824 201.022598,678.274414 201.023819,686.326660 
M222.675308,678.933472 
	C219.121674,678.677490 215.568054,678.421448 211.651718,678.139343 
	C211.761261,680.168518 211.828827,681.420227 211.916214,683.039124 
	C214.826187,683.039124 217.520447,683.366272 220.064255,682.889893 
	C221.199158,682.677429 222.031479,680.849060 222.675308,678.933472 
z"/>
<path fill="#FAFBF9" opacity="1.000000" stroke="none" 
	d="
M328.839722,403.833862 
	C357.514557,373.381104 385.943390,343.183044 414.396210,313.007599 
	C445.238983,280.297607 476.132050,247.634933 506.904785,214.859253 
	C509.284119,212.325027 511.654755,211.361984 515.106140,211.380188 
	C541.569031,211.519882 568.032959,211.456940 595.861084,211.456940 
	C549.733521,260.413147 504.331909,308.598846 458.751038,356.974792 
	C502.873474,404.397003 546.889343,451.704773 591.924744,500.108246 
	C588.773071,500.108246 587.190369,500.107971 585.607605,500.108307 
	C559.444336,500.113708 533.280640,500.181885 507.118591,500.008789 
	C504.962006,499.994537 502.231232,498.906097 500.751465,497.369141 
	C468.763031,464.144104 436.911957,430.786774 405.046936,397.442963 
	C403.229401,395.541077 401.519226,393.536560 399.362762,391.139252 
	C368.931854,423.332275 338.992371,455.005371 308.093048,487.693878 
	C308.093048,484.829102 308.091614,482.976135 308.093292,481.123169 
	C308.108643,463.958862 308.057098,446.793884 308.234833,429.631256 
	C308.254669,427.715515 309.116882,425.408813 310.375488,423.973663 
	C316.301392,417.216736 322.501831,410.700623 328.839722,403.833862 
M416.143921,347.639954 
	C412.527466,351.490723 408.911041,355.341522 405.319092,359.166199 
	C415.862152,370.449402 426.011963,381.458008 436.321045,392.315399 
	C460.748077,418.041565 485.499084,443.467072 509.531982,469.554993 
	C514.923706,475.407745 520.236816,474.991669 527.161621,474.361664 
	C490.623596,435.635803 454.563629,397.416656 418.349335,359.033936 
	C456.617279,318.582886 494.554535,278.481384 532.970886,237.873520 
	C526.056335,236.742615 520.616577,236.423294 515.759705,242.174652 
	C508.467804,250.809616 500.296600,258.701111 492.515015,266.923645 
	C467.217010,293.655029 441.926239,320.393250 416.143921,347.639954 
z"/>
<path fill="#F8F8F6" opacity="1.000000" stroke="none" 
	d="
M370.805298,322.854279 
	C354.364868,323.984741 338.444275,324.260559 322.713348,320.203888 
	C309.652893,316.835846 300.963806,308.774689 295.640930,296.573761 
	C294.940765,294.968842 293.043701,293.371002 291.354675,292.807037 
	C285.799988,290.952332 281.627075,287.716553 281.370026,281.714386 
	C281.103516,275.491669 281.459900,269.145935 282.489899,263.012848 
	C282.885803,260.655548 285.527252,257.526764 287.778839,256.846893 
	C294.321747,254.871185 295.886627,249.574356 298.375732,244.371170 
	C308.581055,223.038345 326.904602,213.809891 349.793243,210.928467 
	C349.467682,205.220062 351.959137,199.200729 345.776123,194.407227 
	C342.859528,192.146088 344.125610,186.423447 347.141205,183.693573 
	C350.994812,180.205048 355.548981,180.007706 359.288483,183.167145 
	C362.819214,186.150269 364.493530,191.708710 361.455261,194.172913 
	C355.581848,198.936615 357.849335,204.862198 357.455597,210.509735 
	C363.201965,211.835281 368.958466,212.720276 374.421600,214.503967 
	C393.037537,220.581955 405.518982,233.076172 412.176758,251.496048 
	C412.632263,252.756287 413.987488,254.113693 415.242249,254.592255 
	C422.007965,257.172668 425.941254,261.794220 426.165131,269.126587 
	C426.296356,273.422699 426.590057,277.829193 425.832275,282.008698 
	C424.819153,287.596741 421.203308,291.360626 415.477539,292.866699 
	C414.331573,293.168121 412.717987,293.842957 412.378845,294.744080 
	C405.221069,313.763824 390.061951,320.943268 370.805298,322.854279 
M400.513092,295.940674 
	C415.553070,272.941711 402.691132,246.687119 375.291992,245.284653 
	C360.851227,244.545486 346.322266,244.651611 331.869568,245.252563 
	C314.823059,245.961334 303.307587,255.482697 300.819183,269.651489 
	C297.400024,289.120026 309.002075,306.128601 329.251587,308.636230 
	C343.505127,310.401337 358.118164,310.279388 372.505768,309.608063 
	C383.055542,309.115814 393.048218,305.433899 400.513092,295.940674 
z"/>
<path fill="#F9F9F7" opacity="1.000000" stroke="none" 
	d="
M187.484222,546.261597 
	C188.261642,548.144836 188.891953,549.851135 188.906540,551.562683 
	C188.998199,562.323975 188.952911,573.086304 188.952911,585.268616 
	C193.334274,580.198059 196.830246,576.143066 200.336151,572.096741 
	C207.092911,564.298340 213.751144,556.409851 220.705276,548.791504 
	C222.056549,547.311218 224.530716,546.224365 226.553558,546.107239 
	C232.580460,545.758179 238.640518,545.981995 245.935318,545.981995 
	C234.344116,559.532104 223.785675,571.874939 212.864075,584.642273 
	C224.232452,600.501038 235.702866,616.502136 247.868744,633.473450 
	C239.568069,633.473450 232.327164,633.627563 225.105347,633.325378 
	C223.866821,633.273560 222.498337,631.433105 221.548447,630.152832 
	C214.139938,620.167542 206.819138,610.117188 199.473190,600.089539 
	C191.636383,605.749756 187.817703,612.540222 188.718521,622.580383 
	C189.698364,633.501465 188.913040,633.546509 177.838379,633.635864 
	C166.736374,633.725586 168.875854,634.214233 168.824142,624.676270 
	C168.692307,600.364929 168.874619,576.051453 168.660614,551.741272 
	C168.620193,547.147339 169.885559,545.388794 174.576981,545.852173 
	C178.702972,546.259644 182.891510,546.033447 187.484222,546.261597 
z"/>
<path fill="#F9F9F8" opacity="1.000000" stroke="none" 
	d="
M343.750671,464.750366 
	C362.591339,444.792877 381.210907,425.111877 400.388611,404.840973 
	C400.388611,436.918610 400.388611,468.225616 400.388611,499.835205 
	C370.870758,499.835205 341.501984,499.835205 310.965759,499.835205 
	C322.178223,487.849884 332.853912,476.438354 343.750671,464.750366 
M381.897705,465.508850 
	C381.897705,461.106293 381.897705,456.703705 381.897705,450.823853 
	C372.220398,461.218170 363.485321,470.600464 354.200439,480.573273 
	C364.074646,480.573273 372.785339,480.573273 381.895569,480.573273 
	C381.895569,475.726593 381.895569,471.113739 381.897705,465.508850 
z"/>
<path fill="#F8F8F6" opacity="1.000000" stroke="none" 
	d="
M409.416443,593.678467 
	C418.926849,609.512573 411.887634,628.182617 394.225922,632.897949 
	C378.165070,637.185913 362.527405,635.193420 348.094696,626.365662 
	C347.388550,625.933716 346.732513,625.411499 346.093597,624.882446 
	C345.852509,624.682739 345.726440,624.344116 345.302185,623.689880 
	C347.463745,618.816467 349.722260,613.724487 352.112488,608.335632 
	C360.879669,614.125366 369.809204,617.969482 379.964478,617.717896 
	C382.898773,617.645264 386.154083,617.330261 388.630737,615.973511 
	C390.790070,614.790588 393.206573,612.084351 393.399567,609.867432 
	C393.591095,607.667236 391.712158,604.134338 389.747864,603.131592 
	C385.234039,600.827087 380.114197,599.711670 375.244080,598.102295 
	C370.524536,596.542664 365.699493,595.235840 361.116272,593.344360 
	C352.176300,589.654968 347.082153,583.065247 346.859039,573.096252 
	C346.616730,562.270691 350.817017,553.596008 360.699921,549.121033 
	C377.444672,541.538940 393.952942,543.482361 410.413910,552.196045 
	C408.312561,557.835266 406.371368,563.044739 404.337006,568.504150 
	C400.030090,566.731323 396.077789,564.735046 391.903961,563.469421 
	C384.952026,561.361328 377.846832,560.465698 371.015594,564.033813 
	C364.964172,567.194580 364.510498,573.578674 370.510590,576.813049 
	C374.501587,578.964478 379.246674,579.760010 383.698212,581.005249 
	C392.954041,583.594238 402.629059,585.275146 409.416443,593.678467 
z"/>
<path fill="#F8F8F6" opacity="1.000000" stroke="none" 
	d="
M503.751526,550.129456 
	C503.752167,557.728394 503.752167,564.847168 503.752167,572.242065 
	C507.275452,570.335876 510.241852,568.250427 513.529663,567.032837 
	C530.672607,560.683960 546.868103,570.279785 548.273499,588.429504 
	C549.351562,602.351685 548.801636,616.406128 548.718323,630.400208 
	C548.711914,631.474487 546.742310,633.335510 545.544983,633.457825 
	C541.585144,633.862305 537.551697,633.475464 533.564514,633.704834 
	C530.364929,633.888794 529.705078,632.607239 529.757080,629.600647 
	C529.947266,618.604736 529.991028,607.600647 529.787720,596.605225 
	C529.593018,586.075684 522.381897,580.413696 513.091553,583.143860 
	C507.516632,584.782166 503.958466,589.772461 503.804230,597.054810 
	C503.592560,607.049683 503.723022,617.051941 503.720886,627.051025 
	C503.719452,633.647827 503.730591,633.632935 497.355011,633.585999 
	C493.370789,633.556702 489.386169,633.580505 484.921814,633.580505 
	C484.921814,602.993408 484.921814,572.752747 484.921814,542.134033 
	C491.045929,542.134033 497.100800,542.134033 503.750885,542.134033 
	C503.750885,544.743164 503.750885,547.196228 503.751526,550.129456 
z"/>
<path fill="#F7F7F6" opacity="1.000000" stroke="none" 
	d="
M289.915283,566.906494 
	C300.451935,570.344360 306.290680,577.911560 306.911407,587.996765 
	C307.828644,602.898376 307.148438,617.898315 307.148438,633.221680 
	C301.602753,633.221680 296.029114,633.221680 290.129761,633.221680 
	C289.978943,631.195435 289.827972,629.167480 289.621368,626.391479 
	C282.104675,634.356018 273.192810,635.536255 263.604309,633.908508 
	C252.876068,632.087219 246.181503,624.235962 246.045044,613.500916 
	C245.915222,603.287292 252.170288,595.623718 263.094513,594.055603 
	C271.259918,592.883484 279.600220,592.929932 287.874725,592.433105 
	C287.856018,586.355591 285.335114,583.037109 279.405487,581.682556 
	C270.738586,579.702759 262.983337,582.126282 255.204041,587.190430 
	C253.156082,583.095459 250.859604,579.249084 249.425720,575.104370 
	C249.073669,574.086731 251.208298,571.472107 252.760284,570.650085 
	C264.453308,564.456909 276.786896,563.504028 289.915283,566.906494 
M265.275482,610.132935 
	C264.317139,614.151794 265.349915,617.585327 269.066681,619.474243 
	C274.052124,622.007996 278.967285,621.323669 283.645813,618.207458 
	C288.566956,614.929749 288.928986,610.353699 287.982819,605.106140 
	C282.773743,605.106140 277.757080,604.636475 272.893646,605.296265 
	C270.303864,605.647583 267.979279,607.953308 265.275482,610.132935 
z"/>
<path fill="#F9F9F7" opacity="1.000000" stroke="none" 
	d="
M637.590088,572.553223 
	C650.837769,563.361328 666.422791,562.700745 678.612732,570.601501 
	C691.068237,578.674377 696.657654,597.089233 691.305298,612.418457 
	C686.134338,627.228210 672.917908,635.852783 657.286743,634.617737 
	C642.577454,633.455383 631.689026,625.416199 627.509644,612.632446 
	C622.810974,598.260376 626.836426,581.892395 637.590088,572.553223 
M657.803345,581.756104 
	C650.742676,583.023804 646.629639,587.354858 645.450195,594.272827 
	C644.149780,601.900818 644.381165,609.429199 650.980530,614.825317 
	C655.433472,618.466370 660.679443,618.884766 665.935852,616.261292 
	C672.386169,613.042175 675.593506,604.000366 673.615356,594.841309 
	C671.745972,586.186157 667.046936,582.067932 657.803345,581.756104 
z"/>
<path fill="#F9F9F7" opacity="1.000000" stroke="none" 
	d="
M591.627441,634.442871 
	C577.636719,635.000000 566.239136,630.547668 559.854492,618.160461 
	C552.785339,604.445312 553.389526,590.330994 562.179626,577.416992 
	C569.363159,566.863464 586.513977,562.609802 600.720764,566.972046 
	C613.199280,570.803711 621.800720,581.763123 622.059387,595.298096 
	C622.178467,601.527588 622.005981,608.156738 620.040771,613.951965 
	C615.643005,626.920471 605.672852,633.435669 591.627441,634.442871 
M583.726135,582.734070 
	C572.265808,586.734985 571.641663,606.140320 579.147522,613.668701 
	C583.080200,617.613098 587.930176,618.891174 593.364197,617.052429 
	C601.457153,614.313904 605.311401,605.333435 603.054749,594.533997 
	C600.992859,584.667053 594.533752,580.433167 583.726135,582.734070 
z"/>
<path fill="#F9F9F7" opacity="1.000000" stroke="none" 
	d="
M336.022034,379.798645 
	C335.945679,373.251068 336.131348,367.083954 335.792694,360.945801 
	C335.709961,359.447266 333.907654,358.043579 332.895966,356.596283 
	C332.115967,358.000122 330.716827,359.378937 330.658997,360.811890 
	C330.344055,368.617645 330.610779,376.452606 330.117004,384.242004 
	C329.957031,386.765625 328.602753,389.611023 326.927582,391.566254 
	C321.959991,397.364410 316.569580,402.801117 311.318665,408.354767 
	C310.586548,409.129089 309.709839,409.766785 307.584656,411.606354 
	C308.176331,391.803131 307.657349,373.339569 309.633057,355.146942 
	C311.043030,342.163666 322.481842,333.738068 335.700165,333.351349 
	C350.496613,332.918457 365.314453,333.215363 380.122986,333.221283 
	C380.355469,333.221375 380.587860,333.561432 381.150513,334.000519 
	C371.346588,344.348907 361.563477,354.664795 351.793396,364.993042 
	C347.680023,369.341400 343.636902,373.757355 339.462128,378.045532 
	C338.558044,378.974121 337.225983,379.485992 336.022034,379.798645 
z"/>
<path fill="#F7F8F5" opacity="1.000000" stroke="none" 
	d="
M453.710419,565.188965 
	C465.054443,566.501892 473.848694,570.875977 478.714996,582.061035 
	C474.069427,584.977783 469.494415,587.850281 464.527863,590.968567 
	C460.922394,585.874023 456.923157,580.712158 449.923584,581.900391 
	C446.392853,582.499634 442.517151,584.245178 439.943481,586.682495 
	C433.361938,592.915527 434.262299,607.660889 441.036224,614.025513 
	C447.927155,620.500061 455.657806,618.846619 464.846100,608.787476 
	C469.457001,611.247559 474.121124,613.736145 479.103149,616.394287 
	C475.809814,625.135681 469.662201,630.448120 461.201447,633.174927 
	C446.535767,637.901428 429.460815,631.945190 421.554749,619.508972 
	C413.522858,606.874817 415.319794,585.631287 425.487915,575.225647 
	C433.080627,567.455627 442.770508,565.096069 453.710419,565.188965 
z"/>
<path fill="#FBFBF9" opacity="1.000000" stroke="none" 
	d="
M719.113892,608.000000 
	C719.113403,616.637085 719.113403,624.774231 719.113403,633.260620 
	C712.732727,633.260620 706.666992,633.260620 700.253967,633.260620 
	C700.253967,602.824768 700.253967,572.647400 700.253967,542.114380 
	C706.395264,542.114380 712.443237,542.114380 719.114380,542.114380 
	C719.114380,564.030823 719.114380,585.765442 719.113892,608.000000 
z"/>
<path fill="#F1F1EF" opacity="1.000000" stroke="none" 
	d="
M337.686157,618.986206 
	C337.749115,633.819275 337.749329,633.712463 323.324432,633.681641 
	C319.785126,633.674072 318.315613,632.918640 318.348297,629.012573 
	C318.509796,609.713379 318.474487,590.411255 318.311493,571.111877 
	C318.280823,567.481262 319.242676,565.916626 323.074982,566.230408 
	C326.377930,566.500916 329.746918,566.462708 333.046753,566.145386 
	C336.981171,565.767151 337.774506,567.498779 337.739105,571.069580 
	C337.582458,586.874878 337.678467,602.682617 337.686157,618.986206 
z"/>
<path fill="#F5F5F3" opacity="1.000000" stroke="none" 
	d="
M569.762085,326.716400 
	C570.803589,325.643250 571.626709,324.855774 572.900635,323.637024 
	C574.546631,336.488251 575.570679,348.443665 562.645325,356.020325 
	C564.231201,357.964172 565.082947,359.498749 566.357849,360.487610 
	C572.535645,365.279297 573.965271,371.596161 573.041809,378.991119 
	C572.615662,382.403809 572.969116,385.913818 572.969116,390.350861 
	C565.881042,382.893707 559.320801,376.023376 552.799255,369.116516 
	C549.832825,365.974731 547.040100,362.663452 543.986755,359.610962 
	C541.624207,357.249023 541.565857,355.498596 544.059570,353.023010 
	C552.674500,344.470490 561.066650,335.693542 569.762085,326.716400 
z"/>
<path fill="#F5F5F3" opacity="1.000000" stroke="none" 
	d="
M542.043335,341.503418 
	C539.881104,345.136047 537.782043,348.381836 535.501404,351.494568 
	C534.235779,353.221863 532.666992,354.726959 531.149536,356.427765 
	C532.058899,357.625122 532.729797,359.075348 533.857727,359.902039 
	C541.412842,365.439514 543.003418,373.033417 541.889709,381.757111 
	C541.565186,384.299072 541.839844,386.917572 541.839844,390.663391 
	C530.582642,378.762085 520.160522,367.743622 509.250183,356.209045 
	C520.466919,345.647675 531.384644,335.367798 542.030701,325.343781 
	C542.030701,329.909790 542.030701,335.485382 542.043335,341.503418 
z"/>
<path fill="#EAEBE8" opacity="1.000000" stroke="none" 
	d="
M328.416443,666.652649 
	C325.892242,674.252563 323.664490,681.559204 321.055328,688.727051 
	C320.551239,690.111877 318.557892,691.806335 317.247162,691.810059 
	C315.892517,691.813843 313.842010,690.204529 313.297699,688.826233 
	C311.240662,683.617126 309.671844,678.215271 307.560577,671.791016 
	C305.372467,678.215088 303.710052,683.570679 301.664124,688.775513 
	C301.139130,690.111084 299.298889,691.932739 298.250305,691.818054 
	C296.779205,691.657166 294.741821,690.163757 294.234833,688.771301 
	C291.293732,680.693542 288.730560,672.478210 286.028320,664.275269 
	C290.110413,662.638184 291.837891,664.447632 292.884705,668.092163 
	C294.337616,673.150879 296.140228,678.109009 298.224792,684.416199 
	C300.431702,677.885376 302.386017,672.724121 303.888947,667.434509 
	C304.882507,663.937744 306.673737,662.936707 310.100769,664.265747 
	C312.301544,670.524109 314.533539,676.871155 317.221649,684.515259 
	C319.574158,677.463135 321.348877,671.699219 323.501923,666.080261 
	C323.910034,665.015259 325.818909,664.525330 327.035339,663.770081 
	C327.550201,664.617065 328.065063,665.463989 328.416443,666.652649 
z"/>
<path fill="#E6E6E5" opacity="1.000000" stroke="none" 
	d="
M426.480225,663.704224 
	C439.700836,665.096375 446.378571,676.498901 439.277588,685.663452 
	C436.924927,688.699768 432.423187,690.770142 428.523590,691.719666 
	C424.299316,692.748169 419.630951,691.952637 414.746338,691.952637 
	C414.746338,682.653992 414.746338,673.465637 414.746338,663.702820 
	C418.485199,663.702820 422.264557,663.702820 426.480225,663.704224 
M434.574463,672.204590 
	C430.528381,667.631165 425.399475,667.902466 420.085815,668.627625 
	C420.085815,674.887878 420.085815,680.805420 420.085815,686.692078 
	C433.438416,688.376404 438.930603,683.210022 434.574463,672.204590 
z"/>
<path fill="#F5F5F3" opacity="1.000000" stroke="none" 
	d="
M339.571442,549.578674 
	C338.535767,555.213318 335.216095,558.079590 330.102203,558.780945 
	C325.602142,559.398193 321.501190,558.401489 318.625183,554.516785 
	C315.633575,550.475952 315.547638,544.928101 318.304657,541.021790 
	C321.054810,537.125244 326.832489,535.488708 332.236450,537.075500 
	C337.071106,538.495239 339.482269,542.443359 339.571442,549.578674 
z"/>
<path fill="#E6E6E5" opacity="1.000000" stroke="none" 
	d="
M382.858643,673.901611 
	C381.359009,677.299255 379.866608,680.299377 378.081696,683.887512 
	C379.373413,685.817871 381.190186,688.532898 383.155792,691.470276 
	C379.283386,692.846436 376.845886,691.711609 375.308838,688.384766 
	C373.253082,683.935242 369.883423,682.540710 364.956665,684.132874 
	C364.956665,686.472961 364.956665,688.920593 364.956665,691.745422 
	C362.957855,691.745422 361.257477,691.745422 359.369232,691.745422 
	C359.369232,682.451965 359.369232,673.333862 359.369232,663.834290 
	C364.068481,663.834290 368.723846,663.555176 373.331635,663.904419 
	C379.185181,664.347961 381.873138,667.312317 382.858643,673.901611 
M371.836426,668.316833 
	C369.603485,668.316833 367.370544,668.316833 365.208099,668.316833 
	C365.208099,672.319946 365.208099,675.709106 365.208099,679.489929 
	C369.681427,678.427063 375.286987,681.182129 377.153137,674.859009 
	C378.166992,671.423767 376.189331,669.209229 371.836426,668.316833 
z"/>
<path fill="#EAEBE8" opacity="1.000000" stroke="none" 
	d="
M256.968292,685.913818 
	C252.789368,677.969543 253.981003,671.373657 260.244293,666.480591 
	C265.986389,661.994629 274.266144,662.177063 279.570068,666.906250 
	C284.885620,671.645874 285.891266,679.619690 281.982117,686.032654 
	C276.922577,694.332886 264.752808,694.434753 256.968292,685.913818 
M264.013885,685.842407 
	C268.414246,688.543762 272.664124,688.228760 276.273346,684.610291 
	C279.591858,681.283264 279.826721,677.135742 277.671021,673.101868 
	C275.790131,669.582214 272.389526,667.298035 268.599915,668.423218 
	C265.599030,669.314209 262.192780,671.551636 260.702545,674.176697 
	C258.523621,678.014832 259.702545,682.270081 264.013885,685.842407 
z"/>
<path fill="#EAEBE8" opacity="1.000000" stroke="none" 
	d="
M596.378052,665.448486 
	C602.495483,670.636536 604.302673,676.099182 602.266052,682.407654 
	C600.305664,688.479675 596.076843,691.673218 589.818665,692.271240 
	C583.084229,692.914734 577.520874,689.901489 574.572632,684.089294 
	C572.060669,679.137146 572.747375,674.284607 575.686462,669.907593 
	C579.134521,664.772705 584.331482,662.762451 590.413879,663.429016 
	C592.346619,663.640747 594.197571,664.598755 596.378052,665.448486 
M597.648987,676.786316 
	C596.030579,670.818848 592.263794,667.723206 587.218750,668.214417 
	C582.275513,668.695740 579.033325,672.143982 578.848206,677.116699 
	C578.635559,682.829956 582.104004,687.178345 587.238770,687.613281 
	C592.048035,688.020752 598.258789,684.332458 597.648987,676.786316 
z"/>
<path fill="#ECECEA" opacity="1.000000" stroke="none" 
	d="
M552.712463,663.607239 
	C563.362244,662.765869 570.316223,668.702759 570.263550,678.156006 
	C570.215820,686.728394 562.984985,693.009583 553.951965,692.325317 
	C546.678467,691.774292 541.284668,686.420654 540.708313,679.180359 
	C540.075928,671.235962 544.137329,665.825195 552.712463,663.607239 
M564.243835,681.467529 
	C565.665100,674.825500 563.564697,670.338196 558.188232,668.530273 
	C553.591980,666.984741 548.532898,669.329041 546.670166,673.867615 
	C544.724792,678.607605 546.553467,683.924072 550.856812,686.447510 
	C554.299072,688.466064 561.789246,687.932068 564.243835,681.467529 
z"/>
<path fill="#EAEBE8" opacity="1.000000" stroke="none" 
	d="
M533.824219,663.814575 
	C534.763977,664.353149 535.765381,664.872314 535.771240,665.402588 
	C535.868347,674.178589 535.840332,682.955933 535.840332,691.887695 
	C533.958069,691.887695 532.522156,691.887695 530.715149,691.887695 
	C530.534729,687.937012 530.363159,684.178284 530.180786,680.184814 
	C525.580383,680.184814 521.175537,680.184814 516.339294,680.184814 
	C516.339294,684.184631 516.339294,687.959473 516.339294,691.828979 
	C514.472107,691.828979 513.036560,691.828979 511.247925,691.828979 
	C511.247925,682.525818 511.247925,673.442749 511.247925,664.072998 
	C512.648376,664.072998 514.224976,664.072998 516.160583,664.072998 
	C516.160583,667.595154 516.160583,671.041931 516.160583,674.804810 
	C521.054932,674.804810 525.597595,674.804810 530.417664,674.804810 
	C530.417664,671.895203 530.162231,669.068604 530.555542,666.335388 
	C530.694092,665.372803 532.421021,664.638794 533.824219,663.814575 
z"/>
<path fill="#E6E6E5" opacity="1.000000" stroke="none" 
	d="
M388.263245,676.016235 
	C388.264435,671.735840 388.264435,667.950623 388.264435,663.955688 
	C395.013489,663.955688 401.456329,663.955688 408.370209,663.955688 
	C408.461731,665.289185 408.554047,666.634399 408.661713,668.203674 
	C403.614288,668.203674 398.992676,668.203674 394.021729,668.203674 
	C394.021729,670.456238 394.021729,672.521545 394.021729,675.204285 
	C396.892151,675.204285 399.986298,675.324585 403.066925,675.171936 
	C406.454041,675.004089 407.653198,676.271362 406.366455,679.911133 
	C402.356750,679.911133 398.266907,679.911133 393.926788,679.911133 
	C393.926788,682.373535 393.926788,684.467163 393.926788,686.898193 
	C398.692230,686.898193 403.630402,686.898193 408.936523,686.898193 
	C408.936523,688.768799 408.936523,690.307312 408.936523,691.907654 
	C402.107819,691.907654 395.494568,691.907654 388.262024,691.907654 
	C388.262024,686.683167 388.262024,681.597290 388.263245,676.016235 
z"/>
<path fill="#ECECEA" opacity="1.000000" stroke="none" 
	d="
M684.914429,690.369507 
	C680.284607,683.121033 680.284607,683.121033 673.245117,684.138245 
	C673.245117,686.524719 673.245117,688.967224 673.245117,691.728638 
	C671.524536,691.875000 670.120300,691.994446 668.355591,692.144531 
	C668.355591,682.602722 668.355591,673.371033 668.355591,663.733704 
	C672.184875,663.733704 675.995239,663.671082 679.802734,663.748535 
	C685.493652,663.864136 689.642944,666.387390 690.753113,670.672607 
	C692.056885,675.705200 690.630371,679.858337 685.737976,682.820068 
	C687.605591,685.694519 689.448608,688.531006 692.175781,692.728394 
	C688.870789,691.782471 686.987976,691.243591 684.914429,690.369507 
M673.215820,671.757263 
	C673.215820,674.163330 673.215820,676.569397 673.215820,679.433350 
	C676.527161,679.167786 679.410461,679.583313 681.624451,678.556213 
	C683.425964,677.720398 685.309265,675.281860 685.586487,673.331055 
	C686.077820,669.872620 683.016724,668.227417 680.149719,668.403503 
	C677.843811,668.545227 673.868347,665.640991 673.215820,671.757263 
z"/>
<path fill="#E6E6E5" opacity="1.000000" stroke="none" 
	d="
M346.704742,675.241089 
	C349.981445,675.174133 352.903503,674.994995 351.427216,679.858093 
	C347.359406,679.858093 343.107056,679.858093 338.636658,679.858093 
	C338.636658,682.442932 338.636658,684.534546 338.636658,686.993774 
	C343.590393,686.993774 348.533417,686.993774 353.852386,686.993774 
	C353.977844,688.711853 354.078979,690.096985 354.201416,691.773804 
	C347.173340,691.773804 340.445038,691.773804 333.408356,691.773804 
	C333.408356,682.551514 333.408356,673.461304 333.408356,664.037720 
	C339.930511,664.037720 346.509521,664.037720 353.272430,664.037720 
	C354.251190,667.035095 353.808807,668.632202 350.008881,668.318298 
	C346.398407,668.020081 342.744019,668.254089 338.787567,668.254089 
	C338.787567,670.634094 338.787567,672.695984 338.787567,675.243347 
	C341.335236,675.243347 343.789429,675.243347 346.704742,675.241089 
z"/>
<path fill="#ECECEA" opacity="1.000000" stroke="none" 
	d="
M647.245972,663.751770 
	C652.364990,663.748962 657.013123,663.748962 661.963623,663.748962 
	C661.963623,665.342468 661.963623,666.696655 661.963623,668.322327 
	C657.114197,668.322327 652.503662,668.322327 647.540649,668.322327 
	C647.540649,670.629028 647.540649,672.672119 647.540649,674.810059 
	C651.920227,675.237000 656.273315,675.616821 660.594666,676.222839 
	C660.796387,676.251160 660.714966,678.298401 660.785950,679.856140 
	C656.215332,679.856140 651.945068,679.856140 647.456543,679.856140 
	C647.456543,682.392517 647.456543,684.494324 647.456543,687.114746 
	C652.491150,687.114746 657.579956,687.114746 662.860413,687.114746 
	C662.860413,688.898743 662.860413,690.166992 662.860413,691.749268 
	C656.012878,691.749268 649.273621,691.749268 642.242554,691.749268 
	C642.242554,682.534851 642.242554,673.305664 642.242554,663.754578 
	C643.814819,663.754578 645.294983,663.754578 647.245972,663.751770 
z"/>
<path fill="#E6E6E5" opacity="1.000000" stroke="none" 
	d="
M719.764160,673.964661 
	C718.032837,684.857849 709.736877,683.645081 701.997437,683.937866 
	C701.875977,686.506592 701.761292,688.931091 701.622803,691.860046 
	C700.134338,691.932251 698.596436,692.006897 696.657166,692.100952 
	C696.657166,682.611511 696.657166,673.520325 696.657166,664.392212 
	C710.584229,662.555969 718.356018,663.422424 719.764160,673.964661 
M702.001465,668.956604 
	C702.001465,672.349915 702.001465,675.743225 702.001465,679.356873 
	C704.563599,679.235413 706.706665,679.174133 708.843262,679.023254 
	C712.162781,678.788757 714.054138,676.980835 714.078125,673.644409 
	C714.103516,670.120667 711.673157,668.734802 708.627380,668.365173 
	C706.668823,668.127441 704.656921,668.329041 702.001465,668.956604 
z"/>
<path fill="#E6E6E5" opacity="1.000000" stroke="none" 
	d="
M239.671432,683.728027 
	C237.574295,683.729980 235.932755,683.729980 233.914658,683.729980 
	C233.761749,686.487488 233.619095,689.060181 233.466385,691.814209 
	C231.711136,691.814209 230.153046,691.814209 228.330917,691.814209 
	C228.330917,682.434509 228.330917,673.327698 228.330917,663.731262 
	C232.141357,663.731262 235.943787,663.695679 239.745316,663.738953 
	C246.905945,663.820435 251.168106,667.330383 251.434418,673.305115 
	C251.708862,679.461731 247.675690,683.178711 239.671432,683.728027 
M233.884033,668.907349 
	C233.884033,672.287354 233.884033,675.667297 233.884033,679.285645 
	C236.472198,679.163574 238.608414,679.071350 240.743652,678.960266 
	C244.109772,678.785217 246.514282,676.890625 245.791016,673.689453 
	C245.345444,671.717346 242.920959,669.718811 240.897369,668.719666 
	C239.132233,667.848206 236.684265,668.359680 233.884033,668.907349 
z"/>
<path fill="#E6E6E5" opacity="1.000000" stroke="none" 
	d="
M189.045166,671.820312 
	C192.074585,678.497864 194.974197,684.819275 198.002380,691.420959 
	C194.510590,692.479126 192.310715,692.122864 190.944366,688.401123 
	C190.455551,687.069641 188.210541,685.980347 186.570892,685.575928 
	C184.524780,685.071167 182.266205,685.503296 180.117111,685.321472 
	C177.294632,685.082642 175.607712,685.906006 174.406799,688.789795 
	C173.694016,690.501404 171.367172,691.540955 169.766052,692.882690 
	C169.209091,692.409424 168.652115,691.936157 168.095154,691.462952 
	C170.977280,684.904724 173.599228,678.213257 176.858444,671.848145 
	C178.344666,668.945557 177.595459,663.973083 182.765213,663.788940 
	C188.116577,663.598267 186.575241,669.128418 189.045166,671.820312 
M182.535904,670.535828 
	C181.023575,673.939880 179.511246,677.343994 177.851135,681.080688 
	C181.433411,681.080688 184.339096,681.080688 187.745483,681.080688 
	C186.169876,677.372681 184.760406,674.055664 182.535904,670.535828 
z"/>
<path fill="#EAEBE8" opacity="1.000000" stroke="none" 
	d="
M462.733459,673.963989 
	C465.961975,675.052734 468.796600,675.980408 471.659149,676.812073 
	C475.244904,677.853943 477.648499,680.191406 477.651672,683.875732 
	C477.654938,687.667725 475.465851,690.596741 471.694458,691.610046 
	C466.033569,693.130981 460.517639,692.812500 455.175049,688.943115 
	C455.866852,687.665955 456.521088,686.458130 457.261169,685.091797 
	C457.773132,685.254700 458.193146,685.418091 458.627380,685.521790 
	C461.806641,686.280640 464.966095,687.395996 468.181366,687.594177 
	C469.441803,687.671936 470.829529,685.685791 472.159302,684.639648 
	C471.110596,683.532471 470.257996,681.992615 468.971710,681.409790 
	C466.427185,680.257019 463.600494,679.746765 460.968201,678.762878 
	C457.473175,677.456482 455.005890,674.711975 456.138916,671.130432 
	C456.972809,668.494751 459.315002,665.560425 461.765961,664.378418 
	C466.431580,662.128357 471.442749,663.002991 476.427551,665.792786 
	C475.846741,667.195251 475.310883,668.489136 474.665985,670.046204 
	C473.644867,669.655823 472.936493,669.199036 472.193695,669.133789 
	C469.295319,668.879272 466.263214,668.170349 463.519226,668.753052 
	C461.279175,669.228699 460.162903,671.472839 462.733459,673.963989 
z"/>
<path fill="#ECECEA" opacity="1.000000" stroke="none" 
	d="
M496.615234,692.338257 
	C489.370544,692.607605 484.240570,689.900146 481.515167,683.457947 
	C478.667206,676.726135 481.068695,669.635315 487.328217,665.690002 
	C493.521423,661.786560 500.719391,662.689514 505.969177,668.217102 
	C504.823456,670.242981 504.152161,672.027649 500.932343,670.044922 
	C495.723572,666.837585 491.098511,667.723938 488.025726,671.720398 
	C485.145264,675.466797 485.609894,681.660522 489.023193,685.016052 
	C492.465363,688.400024 497.276184,688.394592 502.106384,685.009521 
	C502.376587,684.820129 502.688690,684.690552 503.374023,684.321777 
	C504.282288,685.113220 505.308105,686.007019 507.501282,687.918030 
	C503.395447,689.640442 500.203308,690.979553 496.615234,692.338257 
z"/>
<path fill="#F1F1EF" opacity="1.000000" stroke="none" 
	d="
M627.593140,689.125244 
	C626.684143,690.357544 625.805298,691.823181 624.868225,691.861389 
	C619.418213,692.083435 613.954529,691.970154 608.174011,691.970154 
	C608.174011,682.550171 608.174011,673.358215 608.174011,664.043823 
	C609.829468,664.043823 611.406250,664.043823 613.287231,664.043823 
	C613.287231,671.734558 613.287231,679.179932 613.287231,687.113831 
	C617.048523,687.113831 620.518677,686.977356 623.967773,687.186523 
	C625.203247,687.261414 626.388245,688.170837 627.593140,689.125244 
z"/>
<path fill="#DDDDDC" opacity="1.000000" stroke="none" 
	d="
M287.909760,247.737854 
	C287.500702,237.150375 287.245270,226.863022 287.348145,216.579254 
	C287.363953,214.997559 289.028687,213.432343 289.930817,211.859497 
	C291.041504,213.385864 293.018768,214.859695 293.115082,216.447571 
	C293.566376,223.890640 293.489594,231.365295 293.622803,238.828278 
	C293.697693,243.026810 291.634888,245.938049 287.909760,247.737854 
z"/>
<path fill="#EAEBE8" opacity="1.000000" stroke="none" 
	d="
M419.770630,239.855164 
	C419.767914,242.776855 419.767914,245.222382 419.767914,247.667923 
	C419.121277,247.882950 418.474609,248.097961 417.827972,248.312988 
	C416.463989,245.488495 414.144043,242.736511 413.923157,239.825302 
	C413.359436,232.394806 413.532501,224.884308 413.868927,217.426483 
	C413.953857,215.542847 415.756927,213.736710 416.770477,211.894958 
	C417.782837,213.749283 419.581696,215.567749 419.668182,217.464310 
	C420.000702,224.755646 419.784760,232.071976 419.770630,239.855164 
z"/>
<path fill="#F1F1EF" opacity="1.000000" stroke="none" 
	d="
M201.023209,685.846802 
	C201.022598,678.274414 201.022598,671.181824 201.022598,663.916992 
	C202.876678,663.916992 204.326645,663.916992 206.041321,663.916992 
	C206.041321,673.259033 206.041321,682.463623 206.041321,691.848877 
	C204.445587,691.848877 203.003342,691.848877 201.023819,691.848877 
	C201.023819,689.891479 201.023819,688.109070 201.023209,685.846802 
z"/>
<path fill="#DDDDDC" opacity="1.000000" stroke="none" 
	d="
M222.838211,679.343750 
	C222.031479,680.849060 221.199158,682.677429 220.064255,682.889893 
	C217.520447,683.366272 214.826187,683.039124 211.916214,683.039124 
	C211.828827,681.420227 211.761261,680.168518 211.651718,678.139343 
	C215.568054,678.421448 219.121674,678.677490 222.838211,679.343750 
z"/>
<path fill="#0D0D0D" opacity="1.000000" stroke="none" 
	d="
M416.388306,347.384399 
	C441.926239,320.393250 467.217010,293.655029 492.515015,266.923645 
	C500.296600,258.701111 508.467804,250.809616 515.759705,242.174652 
	C520.616577,236.423294 526.056335,236.742615 532.970886,237.873520 
	C494.554535,278.481384 456.617279,318.582886 418.349335,359.033936 
	C454.563629,397.416656 490.623596,435.635803 527.161621,474.361664 
	C520.236816,474.991669 514.923706,475.407745 509.531982,469.554993 
	C485.499084,443.467072 460.748077,418.041565 436.321045,392.315399 
	C426.011963,381.458008 415.862152,370.449402 405.319092,359.166199 
	C408.911041,355.341522 412.527466,351.490723 416.388306,347.384399 
z"/>
<path fill="#181817" opacity="1.000000" stroke="none" 
	d="
M400.281677,296.218781 
	C393.048218,305.433899 383.055542,309.115814 372.505768,309.608063 
	C358.118164,310.279388 343.505127,310.401337 329.251587,308.636230 
	C309.002075,306.128601 297.400024,289.120026 300.819183,269.651489 
	C303.307587,255.482697 314.823059,245.961334 331.869568,245.252563 
	C346.322266,244.651611 360.851227,244.545486 375.291992,245.284653 
	C402.691132,246.687119 415.553070,272.941711 400.281677,296.218781 
M334.422607,249.365921 
	C328.668610,250.749649 322.402100,251.125015 317.270416,253.733185 
	C307.474487,258.711945 302.906921,270.054901 305.071869,281.482025 
	C307.394440,293.741028 315.220245,301.362091 327.071625,303.875702 
	C344.820282,307.640198 362.823029,307.070404 380.586548,303.776917 
	C391.926483,301.674408 398.942322,294.013184 401.606354,282.939148 
	C403.962708,273.144226 402.145508,264.083344 394.418243,256.910675 
	C388.336121,251.265121 380.761261,249.496414 372.803223,249.377701 
	C360.326447,249.191544 347.844604,249.344086 334.422607,249.365921 
z"/>
<path fill="#0F0F0E" opacity="1.000000" stroke="none" 
	d="
M381.896637,466.004883 
	C381.895569,471.113739 381.895569,475.726593 381.895569,480.573273 
	C372.785339,480.573273 364.074646,480.573273 354.200439,480.573273 
	C363.485321,470.600464 372.220398,461.218170 381.897705,450.823853 
	C381.897705,456.703705 381.897705,461.106293 381.896637,466.004883 
z"/>
<path fill="#080808" opacity="1.000000" stroke="none" 
	d="
M265.405243,609.754883 
	C267.979279,607.953308 270.303864,605.647583 272.893646,605.296265 
	C277.757080,604.636475 282.773743,605.106140 287.982819,605.106140 
	C288.928986,610.353699 288.566956,614.929749 283.645813,618.207458 
	C278.967285,621.323669 274.052124,622.007996 269.066681,619.474243 
	C265.349915,617.585327 264.317139,614.151794 265.405243,609.754883 
z"/>
<path fill="#080808" opacity="1.000000" stroke="none" 
	d="
M658.228088,581.742188 
	C667.046936,582.067932 671.745972,586.186157 673.615356,594.841309 
	C675.593506,604.000366 672.386169,613.042175 665.935852,616.261292 
	C660.679443,618.884766 655.433472,618.466370 650.980530,614.825317 
	C644.381165,609.429199 644.149780,601.900818 645.450195,594.272827 
	C646.629639,587.354858 650.742676,583.023804 658.228088,581.742188 
z"/>
<path fill="#080808" opacity="1.000000" stroke="none" 
	d="
M584.086060,582.535156 
	C594.533752,580.433167 600.992859,584.667053 603.054749,594.533997 
	C605.311401,605.333435 601.457153,614.313904 593.364197,617.052429 
	C587.930176,618.891174 583.080200,617.613098 579.147522,613.668701 
	C571.641663,606.140320 572.265808,586.734985 584.086060,582.535156 
z"/>
<path fill="#080808" opacity="1.000000" stroke="none" 
	d="
M434.784790,672.547668 
	C438.930603,683.210022 433.438416,688.376404 420.085815,686.692078 
	C420.085815,680.805420 420.085815,674.887878 420.085815,668.627625 
	C425.399475,667.902466 430.528381,667.631165 434.784790,672.547668 
z"/>
<path fill="#0F0F0E" opacity="1.000000" stroke="none" 
	d="
M372.244904,668.434082 
	C376.189331,669.209229 378.166992,671.423767 377.153137,674.859009 
	C375.286987,681.182129 369.681427,678.427063 365.208099,679.489929 
	C365.208099,675.709106 365.208099,672.319946 365.208099,668.316833 
	C367.370544,668.316833 369.603485,668.316833 372.244904,668.434082 
z"/>
<path fill="#0D0D0D" opacity="1.000000" stroke="none" 
	d="
M263.698273,685.588196 
	C259.702545,682.270081 258.523621,678.014832 260.702545,674.176697 
	C262.192780,671.551636 265.599030,669.314209 268.599915,668.423218 
	C272.389526,667.298035 275.790131,669.582214 277.671021,673.101868 
	C279.826721,677.135742 279.591858,681.283264 276.273346,684.610291 
	C272.664124,688.228760 268.414246,688.543762 263.698273,685.588196 
z"/>
<path fill="#0D0D0D" opacity="1.000000" stroke="none" 
	d="
M597.662720,677.172363 
	C598.258789,684.332458 592.048035,688.020752 587.238770,687.613281 
	C582.104004,687.178345 578.635559,682.829956 578.848206,677.116699 
	C579.033325,672.143982 582.275513,668.695740 587.218750,668.214417 
	C592.263794,667.723206 596.030579,670.818848 597.662720,677.172363 
z"/>
<path fill="#0D0D0D" opacity="1.000000" stroke="none" 
	d="
M564.122192,681.838013 
	C561.789246,687.932068 554.299072,688.466064 550.856812,686.447510 
	C546.553467,683.924072 544.724792,678.607605 546.670166,673.867615 
	C548.532898,669.329041 553.591980,666.984741 558.188232,668.530273 
	C563.564697,670.338196 565.665100,674.825500 564.122192,681.838013 
z"/>
<path fill="#181817" opacity="1.000000" stroke="none" 
	d="
M673.211426,671.307495 
	C673.868347,665.640991 677.843811,668.545227 680.149719,668.403503 
	C683.016724,668.227417 686.077820,669.872620 685.586487,673.331055 
	C685.309265,675.281860 683.425964,677.720398 681.624451,678.556213 
	C679.410461,679.583313 676.527161,679.167786 673.215820,679.433350 
	C673.215820,676.569397 673.215820,674.163330 673.211426,671.307495 
z"/>
<path fill="#0F0F0E" opacity="1.000000" stroke="none" 
	d="
M702.335205,668.645203 
	C704.656921,668.329041 706.668823,668.127441 708.627380,668.365173 
	C711.673157,668.734802 714.103516,670.120667 714.078125,673.644409 
	C714.054138,676.980835 712.162781,678.788757 708.843262,679.023254 
	C706.706665,679.174133 704.563599,679.235413 702.001465,679.356873 
	C702.001465,675.743225 702.001465,672.349915 702.335205,668.645203 
z"/>
<path fill="#0F0F0E" opacity="1.000000" stroke="none" 
	d="
M234.211029,668.583740 
	C236.684265,668.359680 239.132233,667.848206 240.897369,668.719666 
	C242.920959,669.718811 245.345444,671.717346 245.791016,673.689453 
	C246.514282,676.890625 244.109772,678.785217 240.743652,678.960266 
	C238.608414,679.071350 236.472198,679.163574 233.884033,679.285645 
	C233.884033,675.667297 233.884033,672.287354 234.211029,668.583740 
z"/>
<path fill="#181817" opacity="1.000000" stroke="none" 
	d="
M182.943420,670.637268 
	C184.760406,674.055664 186.169876,677.372681 187.745483,681.080688 
	C184.339096,681.080688 181.433411,681.080688 177.851135,681.080688 
	C179.511246,677.343994 181.023575,673.939880 182.943420,670.637268 
z"/>
<path fill="#F9FAF8" opacity="1.000000" stroke="none" 
	d="
M334.893768,249.359558 
	C347.844604,249.344086 360.326447,249.191544 372.803223,249.377701 
	C380.761261,249.496414 388.336121,251.265121 394.418243,256.910675 
	C402.145508,264.083344 403.962708,273.144226 401.606354,282.939148 
	C398.942322,294.013184 391.926483,301.674408 380.586548,303.776917 
	C362.823029,307.070404 344.820282,307.640198 327.071625,303.875702 
	C315.220245,301.362091 307.394440,293.741028 305.071869,281.482025 
	C302.906921,270.054901 307.474487,258.711945 317.270416,253.733185 
	C322.402100,251.125015 328.668610,250.749649 334.893768,249.359558 
M334.229614,282.038269 
	C339.249664,277.199493 338.752808,270.114136 333.255127,267.789856 
	C329.599548,266.244354 326.302277,266.941681 323.845490,269.872803 
	C321.459900,272.718933 320.659027,276.273285 323.023407,279.460236 
	C325.609406,282.945984 329.228058,284.198395 334.229614,282.038269 
M370.908447,279.672699 
	C373.559326,283.299316 376.926697,283.985107 380.949463,282.176544 
	C384.602142,280.534363 386.024780,277.178162 384.796539,274.003815 
	C383.760651,271.326538 381.123322,268.305603 378.511780,267.394287 
	C372.360870,265.247925 368.320953,271.437744 370.908447,279.672699 
z"/>
<path fill="#0F0F0E" opacity="1.000000" stroke="none" 
	d="
M333.862061,282.196777 
	C329.228058,284.198395 325.609406,282.945984 323.023407,279.460236 
	C320.659027,276.273285 321.459900,272.718933 323.845490,269.872803 
	C326.302277,266.941681 329.599548,266.244354 333.255127,267.789856 
	C338.752808,270.114136 339.249664,277.199493 333.862061,282.196777 
z"/>
<path fill="#0D0D0D" opacity="1.000000" stroke="none" 
	d="
M370.733185,279.346832 
	C368.320953,271.437744 372.360870,265.247925 378.511780,267.394287 
	C381.123322,268.305603 383.760651,271.326538 384.796539,274.003815 
	C386.024780,277.178162 384.602142,280.534363 380.949463,282.176544 
	C376.926697,283.985107 373.559326,283.299316 370.733185,279.346832 
z"/>
</svg>